<svg xmlns="http://www.w3.org/2000/svg"  viewBox="0 0 48 48" width="48" height="48"><path fill="#2d70ae" d="M4.555,34.5c-0.016,0.383-0.032,0.754-0.049,1.157c-0.083,2.056-0.569,5.059,1.152,6.898	c1.354,1.446,3.01,1.654,6.381,1.612c4.447-0.057,7.87-0.134,12.317-0.111c1.699,0.009,3.553,0.098,5.253,0.106	c1.371,0.007,4.268-0.23,5.638-0.252c1.275-0.02,3.327,0.069,4.629-0.075C43.955,43.385,45.5,38.5,44.5,33.5L4.555,34.5z"/><path fill="#16b7b8" d="M34,33.788L5.555,34.5c-0.016,0.383-0.032,0.754-0.049,1.157c-0.083,2.056-0.569,5.059,1.152,6.898	c1.354,1.446,3.01,1.654,6.381,1.612c4.447-0.057,7.87-0.134,12.317-0.111c1.699,0.009,3.553,0.098,5.253,0.106	c0.809,0.004,2.147-0.076,3.391-0.148V33.788z"/><path fill="#efa929" d="M23,34.038L4.555,34.5c-0.016,0.383-0.032,0.754-0.049,1.157c-0.083,2.056-0.569,5.059,1.152,6.898	c1.354,1.446,3.01,1.654,6.381,1.612c3.983-0.051,7.15-0.118,10.961-0.115V34.038z"/><path fill="#ed488b" d="M13,34.289L4.555,34.5c-0.016,0.383-0.032,0.754-0.049,1.157c-0.083,2.056-0.569,5.059,1.152,6.898	c1.354,1.446,3.01,1.654,6.381,1.612c0.328-0.004,0.643-0.009,0.961-0.013V34.289z"/><path fill="none" stroke="#010101" stroke-linejoin="round" stroke-miterlimit="10" d="M4.506,35.657	c-0.083,2.056-0.569,5.059,1.152,6.898c1.354,1.446,3.01,1.654,6.381,1.612c4.447-0.057,7.87-0.134,12.317-0.111	c1.699,0.009,3.553,0.098,5.253,0.106c1.371,0.007,4.268-0.23,5.638-0.252c1.275-0.02,3.327,0.069,4.629-0.075	C43.955,43.385,45.5,38.5,44.5,33.5"/><path fill="none" stroke="#010101" stroke-miterlimit="10" d="M13.011,35.184c-0.105,1.433,0.093,2.881,0.097,4.328	c0.001,0.419-0.014,0.837-0.028,1.255C13.04,41.883,13,43,12.961,44.117"/><path fill="none" stroke="#010101" stroke-miterlimit="10" d="M23.034,34.638c0.06,0.947,0.121,1.894,0.181,2.84	c0.039,0.607,0.077,1.215,0.09,1.825c0.036,1.733-0.144,3.479-0.522,5.083"/><path fill="none" stroke="#010101" stroke-miterlimit="10" d="M33.769,34.848c0.031,2.893,0.062,5.785,0.094,8.678"/><path fill="#461a42" stroke="#010101" stroke-miterlimit="10" d="M38.441,3.642c-5,0-4.603-0.05-9.103-0.045	c-3.752,0.003-5.209,0.421-7.899,0.288c-2.228-0.111-4.42-0.382-6.647-0.254c-3.044,0.175-5.686-0.273-7.611,1.186	c-2.136,1.619-2.745,4.326-2.852,6.221c-0.108,1.895-0.189,5.739,0.047,7.625c0.611,4.891,0.358,7.992,0.13,12.907	c-0.083,1.794-0.569,4.414,1.152,6.019c1.354,1.262,3.01,1.443,6.381,1.407c4.447-0.05,7.87-0.117,12.317-0.097	c1.699,0.008,3.553,0.086,5.253,0.092c1.371,0.006,4.268-0.201,5.638-0.22c1.275-0.017,3.327,0.06,4.629-0.065	c5.396-0.519,5.103-7.567,4.904-11.367c-0.23-4.38-0.339-3.193-0.339-7.555c0-1.211,0.323-3.239,0.335-5.551	c0.016-3.065,0.001-4.408-0.335-6.228C43.957,5.385,42.35,3.474,38.441,3.642"/><path fill="#f8f8f8" stroke="#010101" stroke-miterlimit="10" d="M30.87,18.895c0.005-0.308,0.001-0.622-0.098-0.914 c-0.106-0.314-0.314-0.581-0.519-0.842c-0.786-1.002-1.592-2.023-2.662-2.713c-1.37-0.883-3.06-1.143-4.688-1.084 c-0.411,0.015-0.832,0.051-1.203,0.23c-0.345,0.167-0.624,0.447-0.964,0.623c-0.548,0.285-1.22,0.285-1.737,0.622 c-0.285,0.186-0.499,0.46-0.708,0.729c-0.464,0.597-0.927,1.195-1.391,1.792c-0.157,0.203-0.316,0.407-0.424,0.64 c-0.141,0.304-0.19,0.642-0.213,0.977c-0.159,2.398,0.983,4.71,2.456,6.61c0.43,0.555,0.917,1.105,1.567,1.371 c0.404,0.165,0.846,0.209,1.28,0.251c1.379,0.133,2.786,0.265,4.138-0.035c0.474-0.106,0.952-0.265,1.435-0.213 c0.25,0.027,0.491,0.109,0.729,0.191c0.564,0.194,1.161,0.412,1.521,0.888c0.487,0.644,0.371,1.604-0.103,2.257 c-0.474,0.653-1.23,1.044-1.997,1.296c-3.016,0.991-6.285,0.133-9.376-0.591c-0.568-0.133-1.151-0.267-1.642-0.583 c-0.433-0.278-0.769-0.681-1.091-1.083c-0.898-1.119-1.755-2.29-2.319-3.608c-0.457-1.068-0.713-2.211-0.93-3.353 c-0.191-1.001-0.354-2.034-0.154-3.033c0.138-0.689,0.445-1.335,0.588-2.023c0.114-0.548,0.121-1.113,0.245-1.659 c0.354-1.562,1.589-2.747,2.765-3.834c0.84-0.776,1.712-1.572,2.79-1.954c0.459-0.163,0.942-0.245,1.423-0.327 c1.648-0.28,3.302-0.561,4.972-0.608c0.671-0.019,1.346,0.001,2.004,0.129c1.342,0.261,2.558,0.961,3.683,1.737 c2.369,1.633,4.581,3.854,5.096,6.685c0.166,0.912,0.147,1.847,0.142,2.774c-0.007,1.408,0.01,2.866-0.56,4.153 c-0.57,1.287-1.92,2.351-3.305,2.098c-0.321-0.059-0.634-0.188-0.878-0.406c-0.222-0.199-0.378-0.464-0.494-0.739 c-0.471-1.11-0.107-1.757,0.154-2.813C30.696,21.345,30.85,20.119,30.87,18.895z"/><path fill="#f8f8f8" stroke="#010101" stroke-miterlimit="10" d="M31.217,30.405c-0.025,0.631,0.249,1.246,0.643,1.741 c0.628,0.789,1.661,1.331,2.645,1.112c0.939-0.209,1.615-1.039,2.035-1.905c0.083-0.171,0.159-0.347,0.195-0.533 c0.058-0.305,0.003-0.623-0.097-0.917c-0.302-0.89-1.032-1.623-1.921-1.929C32.927,27.357,31.293,28.506,31.217,30.405z"/></svg>